<svg xmlns="http://www.w3.org/2000/svg" viewBox="0 0 1000 520" role="img" aria-labelledby="title desc">
  <title id="title">Glass House Gran Fondo route map</title>
  <desc id="desc">A stylised map showing the 122 kilometre loop and three supply points.</desc>
  <rect width="1000" height="520" rx="28" fill="#eaf0ef"/>
  <g fill="none" stroke="#c9d7d4" stroke-width="3" opacity=".9">
    <path d="M0 95c155 49 275 17 401-45 195-96 342-15 599 69"/>
    <path d="M0 385c190-83 324-68 493 0 175 70 313 74 507-10"/>
    <path d="M183 0c40 112 32 212-13 324-34 86-36 145-6 196"/>
    <path d="M788 0c-43 118-36 214 24 302 51 76 61 146 28 218"/>
  </g>
  <path d="M182 390c84-153 99-250 204-267 133-22 142 146 251 148 100 2 171-104 215-16 34 68-72 156-195 158-157 2-224-80-329-34-64 28-113 57-146 11Z" fill="none" stroke="#10243d" stroke-width="18" stroke-linecap="round" stroke-linejoin="round"/>
  <path d="M182 390c84-153 99-250 204-267 133-22 142 146 251 148 100 2 171-104 215-16 34 68-72 156-195 158-157 2-224-80-329-34-64 28-113 57-146 11Z" fill="none" stroke="#c6f135" stroke-width="7" stroke-linecap="round" stroke-linejoin="round"/>
  <g font-family="Arial, sans-serif" font-weight="700" fill="#10243d">
    <g transform="translate(168 376)"><circle r="18" fill="#c6f135" stroke="#10243d" stroke-width="5"/><text x="28" y="6" font-size="22">Start / Finish</text></g>
    <g transform="translate(378 123)"><circle r="14" fill="#36c6d3" stroke="#10243d" stroke-width="4"/><text x="22" y="-16" font-size="18">Supply 1 · 34 km</text></g>
    <g transform="translate(650 270)"><circle r="14" fill="#36c6d3" stroke="#10243d" stroke-width="4"/><text x="-20" y="-24" font-size="18">Supply 2 · 68 km</text></g>
    <g transform="translate(737 414)"><circle r="14" fill="#36c6d3" stroke="#10243d" stroke-width="4"/><text x="22" y="7" font-size="18">Supply 3 · 96 km</text></g>
  </g>
</svg>
